<svg viewBox="0 0 24 8" xmlns="http://www.w3.org/2000/svg" fill-rule="evenodd" fill="#fff">
  <path className="glyph"
    d="M 3.636 3.541 L 4.444 1.858 L 5.581 3.41 L 3.636 3.541 Z M 1.603 7.738 L 1.515 2.798 L 4.073 0 L 8.292 3.257 L 8.161 7.367 L 5.8 7.476 L 5.865 4.809 L 3.614 4.569 L 3.308 7.716 L 1.603 7.738 Z">
  </path>
  <path className="glyph"
    d="M 11.329 2.098 L 11.395 3.322 L 12.204 2.273 L 11.329 2.098 Z M 11.679 5.377 L 11.963 6.492 L 13.034 6.229 L 11.679 5.377 Z M 9.865 0.568 L 10.018 6.973 L 15.439 6.995 L 13.078 3.912 L 15.199 2.077 L 9.865 0.568 Z">
  </path>
  <path className="glyph"
    d="M 22.719 1.268 L 18.041 1.509 L 16.795 5.312 L 21.757 7.476 L 22.194 5.378 L 19.309 4.897 L 19.222 2.602 L 22.741 2.667 L 22.719 1.268 Z">
  </path>
</svg>